<svg xmlns="http://www.w3.org/2000/svg" width="80" height="81" viewBox="0 0 80 81" fill="none">
    <g clip-path="url(#clip0)">
        <path fill-rule="evenodd" clip-rule="evenodd" d="M40 76.5162C59.2525 76.5162 75 60.8147 75 41.5088C75 22.2523 59.3018 6.5014 40 6.5014C20.6982 6.5014 5 22.2029 5 41.5088C5 60.7654 20.6982 76.5162 40 76.5162Z" fill="url(#paint0_linear)"/>
        <path d="M14.039 32.0077V75.0159C14.039 77.7779 16.2775 80.0169 19.039 80.0169H61C63.7614 80.0169 66 77.7808 66 75.0188C66 65.6134 66 45.0597 66 32.0358C65.8247 32.071 65.6629 32.1519 65.5323 32.2696L64.7041 33.0645C64.6131 33.1512 64.5051 33.2198 64.3864 33.2663C64.2677 33.3129 64.1406 33.3365 64.0124 33.3358C63.8881 33.3388 63.7647 33.3161 63.6504 33.2693C63.5361 33.2225 63.4336 33.1527 63.3498 33.0645L62.5216 32.2696C62.3404 32.1092 62.1054 32.0163 61.8591 32.0077C61.6028 32.0104 61.3565 32.1036 61.1673 32.2696L60.3391 33.0645C60.2562 33.1537 60.1539 33.2242 60.0394 33.2711C59.9249 33.3179 59.801 33.34 59.6766 33.3358C59.5484 33.3365 59.4213 33.3129 59.3026 33.2663C59.1838 33.2198 59.0759 33.1512 58.9848 33.0645L58.1566 32.2696C57.9785 32.1047 57.7416 32.011 57.4941 32.0077C57.2388 32.0153 56.9943 32.1079 56.8023 32.2696L55.9741 33.0645C55.8912 33.1537 55.7889 33.2242 55.6744 33.2711C55.5599 33.3179 55.436 33.34 55.3116 33.3358C55.1874 33.3388 55.0639 33.3161 54.9496 33.2693C54.8353 33.2225 54.7328 33.1527 54.6491 33.0645L53.8209 32.2696C53.6298 32.1065 53.3847 32.0138 53.1291 32.0077C52.8816 32.011 52.6447 32.1047 52.4666 32.2696L51.6384 33.0645C51.5473 33.1512 51.4394 33.2198 51.3206 33.2663C51.2019 33.3129 51.0748 33.3365 50.9466 33.3358C50.8224 33.3388 50.6989 33.3161 50.5846 33.2693C50.4703 33.2225 50.3678 33.1527 50.284 33.0645L49.4559 32.2696C49.2742 32.101 49.0314 32.0068 48.7787 32.0068C48.526 32.0068 48.2832 32.101 48.1016 32.2696L47.2734 33.0645C47.1885 33.1513 47.0858 33.2202 46.9717 33.2668C46.8577 33.3135 46.7348 33.337 46.6108 33.3358C46.4826 33.3365 46.3555 33.3129 46.2368 33.2663C46.1181 33.2198 46.0101 33.1512 45.9191 33.0645L45.0909 32.2696C44.9127 32.1047 44.6758 32.011 44.4283 32.0077C44.1731 32.0153 43.9285 32.1079 43.7366 32.2696L42.9084 33.0645C42.8255 33.1537 42.7231 33.2242 42.6086 33.2711C42.4941 33.3179 42.3702 33.34 42.2458 33.3358C42.1216 33.3388 41.9981 33.3161 41.8838 33.2693C41.7695 33.2225 41.667 33.1527 41.5833 33.0645L40.7259 32.2696C40.5477 32.1047 40.3108 32.011 40.0633 32.0077C39.8159 32.011 39.579 32.1047 39.4008 32.2696L38.5726 33.0645C38.3911 33.2373 38.1462 33.3347 37.8906 33.3358C37.7647 33.3401 37.6394 33.3181 37.5233 33.2713C37.4072 33.2245 37.3031 33.1539 37.2183 33.0645L36.3901 32.2696C36.2025 32.1072 35.9606 32.0143 35.7081 32.0077C35.4606 32.011 35.2237 32.1047 35.0455 32.2696L34.2174 33.0645C34.1263 33.1512 34.0183 33.2198 33.8996 33.2663C33.7809 33.3129 33.6538 33.3365 33.5256 33.3358C33.4014 33.3382 33.2782 33.3152 33.1639 33.2685C33.0497 33.2217 32.9472 33.1522 32.863 33.0645L32.0349 32.2696C31.8567 32.1047 31.6198 32.011 31.3723 32.0077C31.1167 32.0138 30.8716 32.1065 30.6805 32.2696L29.8523 33.0645C29.7686 33.1527 29.6661 33.2225 29.5518 33.2693C29.4375 33.3161 29.314 33.3388 29.1898 33.3358C29.0616 33.3365 28.9345 33.3129 28.8157 33.2663C28.697 33.2198 28.5891 33.1512 28.498 33.0645L27.6699 32.2696C27.4917 32.1047 27.2548 32.011 27.0073 32.0077C26.7598 32.011 26.5229 32.1047 26.3448 32.2696L25.4873 33.0645C25.4036 33.1527 25.3011 33.2225 25.1868 33.2693C25.0725 33.3161 24.949 33.3388 24.8248 33.3358C24.7004 33.34 24.5765 33.3179 24.462 33.2711C24.3475 33.2242 24.2452 33.1537 24.1623 33.0645L23.3341 32.2696C23.1421 32.1079 22.8976 32.0153 22.6423 32.0077C22.3948 32.011 22.1579 32.1047 21.9798 32.2696L21.1516 33.0645C21.0605 33.1512 20.9526 33.2198 20.8339 33.2663C20.7151 33.3129 20.588 33.3365 20.4598 33.3358C20.3354 33.34 20.2115 33.3179 20.097 33.2711C19.9825 33.2242 19.8802 33.1537 19.7973 33.0645L18.9691 32.2696C18.7874 32.101 18.5446 32.0068 18.2919 32.0068C18.0392 32.0068 17.7964 32.101 17.6148 32.2696L16.7866 33.0645C16.7028 33.1527 16.6003 33.2225 16.486 33.2693C16.3717 33.3161 16.2483 33.3388 16.124 33.3358C15.9958 33.3365 15.8687 33.3129 15.75 33.2663C15.6313 33.2198 15.5233 33.1512 15.4323 33.0645L14.6041 32.2696C14.4378 32.1215 14.2257 32.0296 14 32.0077H14.039Z" fill="url(#paint1_linear)"/>
        <path opacity="0.2" d="M38.5529 49.9741C39.1163 49.9798 39.6687 49.8176 40.1396 49.5081C40.6104 49.1986 40.9784 48.7558 41.1967 48.2363C41.415 47.7167 41.4736 47.1439 41.3651 46.5909C41.2566 46.0379 40.9859 45.5297 40.5875 45.1312C40.189 44.7327 39.681 44.4619 39.1281 44.3534C38.5752 44.2449 38.0025 44.3035 37.4831 44.5218C36.9636 44.7401 36.521 45.1082 36.2115 45.5792C35.9021 46.0502 35.7399 46.6027 35.7456 47.1662C35.771 47.9028 36.0749 48.6024 36.596 49.1236C37.117 49.6447 37.8164 49.9487 38.5529 49.9741Z" fill="#006A2F"/>
        <path opacity="0.2" d="M56.5165 49.9741C57.0799 49.9798 57.6323 49.8176 58.1032 49.5081C58.574 49.1986 58.9421 48.7558 59.1604 48.2363C59.3786 47.7167 59.4372 47.1439 59.3287 46.5909C59.2202 46.0379 58.9495 45.5297 58.5511 45.1312C58.1527 44.7327 57.6446 44.4619 57.0917 44.3534C56.5388 44.2449 55.9661 44.3035 55.4467 44.5218C54.9272 44.7401 54.4846 45.1082 54.1751 45.5792C53.8657 46.0502 53.7035 46.6027 53.7093 47.1662C53.7093 47.9109 54.005 48.6251 54.5315 49.1517C55.0579 49.6783 55.772 49.9741 56.5165 49.9741Z" fill="#006A2F"/>
        <path fill-rule="evenodd" clip-rule="evenodd" d="M38.5818 46.1917C39.104 46.1917 39.5273 46.615 39.5273 47.1373C39.5273 51.5766 43.1253 55.1754 47.5636 55.1754C52.002 55.1754 55.6 51.5766 55.6 47.1373C55.6 46.615 56.0233 46.1917 56.5454 46.1917C57.0676 46.1917 57.4909 46.615 57.4909 47.1373C57.4909 52.6211 53.0463 57.0667 47.5636 57.0667C42.0809 57.0667 37.6364 52.6211 37.6364 47.1373C37.6364 46.615 38.0596 46.1917 38.5818 46.1917Z" fill="url(#paint2_linear)"/>
        <path d="M31.0182 32.0687V80.0169H17.8208C15.7321 80.0169 14.039 78.4537 14.039 76.5253V32.0118C14.25 32.0378 14.4474 32.1206 14.6041 32.2494L15.4323 32.9832C15.5233 33.0632 15.6313 33.1265 15.75 33.1695C15.8687 33.2124 15.9958 33.2342 16.124 33.2335C16.2483 33.2363 16.3717 33.2154 16.486 33.1722C16.6003 33.129 16.7028 33.0645 16.7866 32.9832L17.6148 32.2494C17.7964 32.0938 18.0392 32.0068 18.2919 32.0068C18.5446 32.0068 18.7874 32.0938 18.9691 32.2494L19.7973 32.9832C19.8802 33.0655 19.9825 33.1305 20.097 33.1738C20.2115 33.2171 20.3354 33.2375 20.4598 33.2335C20.588 33.2342 20.7151 33.2124 20.8339 33.1695C20.9526 33.1265 21.0605 33.0632 21.1516 32.9832L21.9798 32.2494C22.1579 32.0971 22.3948 32.0107 22.6423 32.0076C22.8976 32.0147 23.1421 32.1001 23.3341 32.2494L24.1623 32.9832C24.2452 33.0655 24.3475 33.1305 24.462 33.1738C24.5765 33.2171 24.7004 33.2375 24.8248 33.2335C24.949 33.2363 25.0725 33.2154 25.1868 33.1722C25.3011 33.129 25.4036 33.0645 25.4873 32.9832L26.3448 32.2494C26.5229 32.0971 26.7598 32.0107 27.0073 32.0076C27.2548 32.0107 27.4917 32.0971 27.6699 32.2494L28.498 32.9832C28.5891 33.0632 28.697 33.1265 28.8158 33.1695C28.9345 33.2124 29.0616 33.2342 29.1898 33.2335C29.314 33.2363 29.4375 33.2154 29.5518 33.1722C29.6661 33.129 29.7686 33.0645 29.8523 32.9832L30.6805 32.2494C30.7804 32.1707 30.895 32.1098 31.0182 32.0687Z" fill="url(#paint3_linear)"/>
        <path d="M14.039 32.0118V32.0076H14C14.013 32.0088 14.026 32.0102 14.039 32.0118Z" fill="url(#paint4_linear)"/>
        <path d="M22.509 80.0169H31.0181V32.0688C30.895 32.1098 30.7803 32.1708 30.6805 32.2494L29.8523 32.9832C29.7685 33.0646 29.6661 33.1291 29.5517 33.1723C29.4374 33.2155 29.314 33.2364 29.1897 33.2336C29.0615 33.2343 28.9344 33.2125 28.8157 33.1695C28.697 33.1266 28.589 33.0633 28.498 32.9832L27.6698 32.2494C27.4916 32.0972 27.2547 32.0108 27.0072 32.0077C26.7598 32.0108 26.5229 32.0972 26.3447 32.2494L25.4873 32.9832C25.4035 33.0646 25.301 33.1291 25.1867 33.1723C25.0724 33.2155 24.949 33.2364 24.8247 33.2336C24.7003 33.2375 24.5765 33.2171 24.462 33.1739C24.3475 33.1306 24.2451 33.0655 24.1622 32.9832L23.334 32.2494C23.142 32.1002 22.8975 32.0147 22.6422 32.0077C22.5974 32.0082 22.5529 32.0115 22.509 32.0175V80.0169Z" fill="url(#paint5_linear)"/>
        <path d="M9 78.7666C9 78.0761 9.55964 77.5164 10.25 77.5164H69.75C70.4404 77.5164 71 78.0761 71 78.7666C71 79.4571 70.4404 80.0169 69.75 80.0169H10.25C9.55964 80.0169 9 79.4571 9 78.7666Z" fill="#007500" fill-opacity="0.25"/>
    </g>
    <defs>
        <linearGradient id="paint0_linear" x1="40" y1="6.5014" x2="40" y2="76.5162" gradientUnits="userSpaceOnUse">
            <stop stop-color="#CFF4DC"/>
            <stop offset="1" stop-color="#CFF4DC"/>
        </linearGradient>
        <linearGradient id="paint1_linear" x1="66" y1="80.0169" x2="66" y2="34.0072" gradientUnits="userSpaceOnUse">
            <stop stop-color="#C9EDD9"/>
            <stop offset="1" stop-color="white"/>
        </linearGradient>
        <linearGradient id="paint2_linear" x1="47.5636" y1="46.1917" x2="47.5636" y2="57.0667" gradientUnits="userSpaceOnUse">
            <stop stop-color="#0BAB42"/>
            <stop offset="1" stop-color="#1FBA54"/>
        </linearGradient>
        <linearGradient id="paint3_linear" x1="22.5091" y1="32.0068" x2="22.5091" y2="80.0169" gradientUnits="userSpaceOnUse">
            <stop stop-color="#69DD9D"/>
            <stop offset="1" stop-color="#00CB5B"/>
        </linearGradient>
        <linearGradient id="paint4_linear" x1="22.5091" y1="32.0068" x2="22.5091" y2="80.0169" gradientUnits="userSpaceOnUse">
            <stop stop-color="#69DD9D"/>
            <stop offset="1" stop-color="#00CB5B"/>
        </linearGradient>
        <linearGradient id="paint5_linear" x1="22.509" y1="32.0068" x2="22.509" y2="80.0169" gradientUnits="userSpaceOnUse">
            <stop stop-color="#00BB53"/>
            <stop offset="1" stop-color="#008E3F"/>
        </linearGradient>
        <clipPath id="clip0">
            <rect width="80" height="80.0169" fill="white"/>
        </clipPath>
    </defs>
</svg>
